<svg xmlns="http://www.w3.org/2000/svg" width="73" height="73" viewBox="0 0 73 73">
  <metadata><?xpacket begin="﻿" id="W5M0MpCehiHzreSzNTczkc9d"?>
<x:xmpmeta xmlns:x="adobe:ns:meta/" x:xmptk="Adobe XMP Core 5.6-c142 79.160924, 2017/07/13-01:06:39        ">
   <rdf:RDF xmlns:rdf="http://www.w3.org/1999/02/22-rdf-syntax-ns#">
      <rdf:Description rdf:about=""/>
   </rdf:RDF>
</x:xmpmeta>
                                                                                                    
                                                                                                    
                                                                                                    
                                                                                                    
                                                                                                    
                                                                                                    
                                                                                                    
                                                                                                    
                                                                                                    
                                                                                                    
                                                                                                    
                                                                                                    
                                                                                                    
                                                                                                    
                                                                                                    
                                                                                                    
                                                                                                    
                                                                                                    
                                                                                                    
                                                                                                    
                           
<?xpacket end="w"?></metadata>
<defs>
    <style>
      .cls-1 {
        fill: #363636;
        fill-rule: evenodd;
      }
    </style>
  </defs>
  <path id="Forma_1" data-name="Forma 1" class="cls-1" d="M1363.28,1346.36a1.289,1.289,0,0,0-1.28,1.31l0.06,5.58a1.3,1.3,0,0,0,1.3,1.28h0.02l1.93,0.1a19.329,19.329,0,0,0,2.65,6.19l-1.26,1.46a1.277,1.277,0,0,0,.02,1.83l4,3.91a1.278,1.278,0,0,0,.91.37,1.32,1.32,0,0,0,.93-0.39l1.43-1.3a19.169,19.169,0,0,0,5.92,2.44,3.87,3.87,0,0,1,.56-0.72,3.469,3.469,0,0,1,2.41-1.03l0.86-.05c0.01-.02.01-0.05,0.02-0.07a23.418,23.418,0,0,1,.99-2.81c-0.17.01-.33,0.01-0.5,0.01a14.45,14.45,0,0,1-4.37-.68,13.639,13.639,0,0,1-1.86-.75,14.165,14.165,0,0,1-6.48-6.32c-0.07-.13-0.14-0.26-0.2-0.4l10.43-2.32a4.55,4.55,0,0,0,2.48.74c0.06,0,.13-0.01.19-0.01l1.34,1.31,4.39-4.39-1.38-1.36a4.5,4.5,0,0,0-.88-2.76l2.07-10.39c0.17,0.08.34,0.15,0.51,0.23a14.38,14.38,0,0,1,6.48,6.33,13.968,13.968,0,0,1,.78,1.83,14.285,14.285,0,0,1,.78,5.25,25.289,25.289,0,0,1,2.7-.93l0.02-.28,0.03-.58a3.488,3.488,0,0,1,1.03-2.41c0.34-.34.89-0.79,0.89-0.79a19.5,19.5,0,0,0-2.66-6.2l1.27-1.46a1.3,1.3,0,0,0-.02-1.83l-4-3.9a1.3,1.3,0,0,0-1.84.02l-1.43,1.29a19.344,19.344,0,0,0-6.27-2.5l-0.14-1.93a1.3,1.3,0,0,0-1.3-1.28h-0.01l-5.6.06a1.3,1.3,0,0,0-1.28,1.31l-0.1,1.93a19.476,19.476,0,0,0-6.2,2.65l-1.46-1.26a1.312,1.312,0,0,0-.91-0.37,1.286,1.286,0,0,0-.93.39l-3.91,3.99a1.277,1.277,0,0,0,.02,1.83l1.3,1.43a19.429,19.429,0,0,0-2.52,6.26Zm18.46,0.08a4.562,4.562,0,0,0-.73.6,4.272,4.272,0,0,0-.67.88l-8.45,1.78-1.93.4a14.436,14.436,0,0,1,.69-4.26,14.692,14.692,0,0,1,.74-1.86,14.423,14.423,0,0,1,2.65-3.74,13.974,13.974,0,0,1,3.69-2.72,14.156,14.156,0,0,1,1.84-.79,14.353,14.353,0,0,1,4.14-.77l-0.36,1.93Zm4.02,5.24a0.435,0.435,0,0,1-.07.06l-0.02.02a2.129,2.129,0,0,1-1.42.55,2.1,2.1,0,0,1-1.47-.6,2.224,2.224,0,0,1-.41-0.57,2.1,2.1,0,0,1,1.88-3.03,2.1,2.1,0,0,1,1.47.6A2.1,2.1,0,0,1,1385.76,1351.68Zm47.67,27.48a1.579,1.579,0,0,0,1.57-1.57l-0.01-6.74a1.562,1.562,0,0,0-1.56-1.56h0l-2.33-.14a22.948,22.948,0,0,0-3.13-7.5l1.55-1.75a1.563,1.563,0,0,0,0-2.21l-4.78-4.76a1.6,1.6,0,0,0-1.11-.46,1.561,1.561,0,0,0-1.1.46l-1.75,1.55a23.325,23.325,0,0,0-7.52-3.11l-0.15-2.32a1.562,1.562,0,0,0-1.56-1.56h-6.76a1.577,1.577,0,0,0-1.56,1.57l-0.14,2.32c-0.65.15-1.28,0.32-1.9,0.51a22.469,22.469,0,0,0-2.93,1.13c-0.38.18-.76,0.37-1.13,0.57-0.42.22-.83,0.46-1.23,0.71a1,1,0,0,0-.14.08c-0.06.04-.13,0.08-0.19,0.12l-1.75-1.54a1.52,1.52,0,0,0-1.1-.46,2.275,2.275,0,0,0-.26.02,1.557,1.557,0,0,0-.85.44l-0.05.04-4.39,4.4-0.33.33a1.492,1.492,0,0,0-.3.41,1.608,1.608,0,0,0-.02,1.34,1.735,1.735,0,0,0,.32.46l1.55,1.74c-0.04.06-.07,0.12-0.11,0.18-0.25.4-.49,0.81-0.72,1.22-0.2.37-.39,0.75-0.57,1.13a23.517,23.517,0,0,0-1.18,2.99c-0.21.65-.38,1.32-0.53,1.99l-2.33.14a1.558,1.558,0,0,0-1.56,1.57v6.74a1.564,1.564,0,0,0,1.57,1.56h0l2.33,0.14a23.238,23.238,0,0,0,3.12,7.5l-1.55,1.75a1.554,1.554,0,0,0,.01,2.21l4.77,4.76a1.594,1.594,0,0,0,2.22,0l1.75-1.55a23.305,23.305,0,0,0,7.52,3.1l0.14,2.33a1.564,1.564,0,0,0,1.57,1.56h0l6.75-.01a1.564,1.564,0,0,0,1.57-1.56l0.14-2.32a23.515,23.515,0,0,0,7.51-3.12l1.75,1.54a1.569,1.569,0,0,0,2.22,0l4.77-4.77a1.563,1.563,0,0,0,0-2.21l-1.55-1.74a23.5,23.5,0,0,0,3.11-7.51Zm-8.88.52a16.885,16.885,0,0,1-.93,2.23,17.217,17.217,0,0,1-7.72,7.72,16.885,16.885,0,0,1-2.23.93,17.6,17.6,0,0,1-5.46.89h-0.02a17.286,17.286,0,0,1-5.45-.88l-0.51-.18,7.03-10.79a5.41,5.41,0,0,0,2.92-1.62l10.96-.01h1.88C1424.89,1378.55,1424.73,1379.13,1424.55,1379.68Zm-32.7.03a16.921,16.921,0,0,1-.89-5.45,17.445,17.445,0,0,1,.44-3.92c0.1-.39.2-0.77,0.31-1.15,0.04-.13.09-0.26,0.13-0.39,0.09-.28.2-0.56,0.31-0.84,0.18-.47.39-0.94,0.61-1.38a16.552,16.552,0,0,1,2.92-4.16l0.18,0.27,1.13,1.7,1.81,2.69,0.55,0.83,0.56,0.82,2.93,4.38a5.311,5.311,0,0,0-.12,1.14,5.747,5.747,0,0,0,.16,1.32l-5.77,8.65-1.32,1.97A16.884,16.884,0,0,1,1391.85,1379.71Zm12.53-22.24a16.959,16.959,0,0,1,3.8-.43h0.01a17.194,17.194,0,0,1,5.45.88,19.136,19.136,0,0,1,2.24.92,17.315,17.315,0,0,1,7.73,7.71,16.885,16.885,0,0,1,.93,2.23,15.943,15.943,0,0,1,.47,1.71h-1.88l-10.96.01a5.416,5.416,0,0,0-3.1-1.65l-5.79-8.86-0.62-.95-0.58-.88c0.21-.08.42-0.16,0.63-0.23,0.17-.06.34-0.11,0.52-0.16C1403.6,1357.66,1403.99,1357.55,1404.38,1357.47Zm3.81,14.24a2.535,2.535,0,0,1,2.54,2.53v0.14a2.544,2.544,0,0,1-2.54,2.4h0a2.359,2.359,0,0,1-.84-0.15,2.531,2.531,0,0,1-.23-4.68,2.577,2.577,0,0,1,1.07-.24h0Z" transform="translate(-1362 -1328)"/>
</svg>
