<svg xmlns="http://www.w3.org/2000/svg" width="21" height="35" viewBox="0 0 21 35">
  <metadata><?xpacket begin="﻿" id="W5M0MpCehiHzreSzNTczkc9d"?>
<x:xmpmeta xmlns:x="adobe:ns:meta/" x:xmptk="Adobe XMP Core 5.6-c142 79.160924, 2017/07/13-01:06:39        ">
   <rdf:RDF xmlns:rdf="http://www.w3.org/1999/02/22-rdf-syntax-ns#">
      <rdf:Description rdf:about=""/>
   </rdf:RDF>
</x:xmpmeta>
                                                                                                    
                                                                                                    
                                                                                                    
                                                                                                    
                                                                                                    
                                                                                                    
                                                                                                    
                                                                                                    
                                                                                                    
                                                                                                    
                                                                                                    
                                                                                                    
                                                                                                    
                                                                                                    
                                                                                                    
                                                                                                    
                                                                                                    
                                                                                                    
                                                                                                    
                                                                                                    
                           
<?xpacket end="w"?></metadata>
<defs>
    <style>
      .cls-1 {
        fill: #2297d8;
        fill-rule: evenodd;
      }
    </style>
  </defs>
  <path id="Lightning_Bolt_Outline._Attribute_as_Freepik_from_Flaticon.com_copy" data-name="Lightning Bolt Outline. Attribute as Freepik from Flaticon.com copy" class="cls-1" d="M1041.9,2065.28a0.544,0.544,0,0,0-.59-0.25l-6.74,1.57,2.05-14.94a0.577,0.577,0,0,0-.34-0.62,0.553,0.553,0,0,0-.67.2l-14.5,20.44a0.572,0.572,0,0,0-.02.65,0.551,0.551,0,0,0,.58.27l7.31-1.41-2.14,14.13a0.578,0.578,0,0,0,.35.63,0.537,0.537,0,0,0,.21.05,0.574,0.574,0,0,0,.46-0.24l14.03-19.82A0.588,0.588,0,0,0,1041.9,2065.28Z" transform="translate(-1021 -2051)"/>
</svg>
