<?xml version="1.0" encoding="iso-8859-1"?>
<!-- Generator: Adobe Illustrator 19.0.0, SVG Export Plug-In . SVG Version: 6.00 Build 0)  -->
<svg version="1.1" id="Layer_1" xmlns="http://www.w3.org/2000/svg" xmlns:xlink="http://www.w3.org/1999/xlink" x="0px" y="0px"
	 viewBox="0 0 420 420" style="enable-background:new 0 0 420 420;" xml:space="preserve">
<g>
	<path d="M60,420h300V295H60V420z M256.259,326.475h43.38v12.959h-28.62v13.771h23.58v11.97h-23.58v25.2h-14.76V326.475z
		 M187.32,326.475h23.85c5.279,0,9.9,0.84,13.86,2.52s7.274,3.96,9.945,6.84c2.669,2.88,4.68,6.255,6.031,10.125
		c1.35,3.87,2.024,7.996,2.024,12.375c0,4.859-0.751,9.256-2.25,13.186c-1.5,3.93-3.645,7.289-6.435,10.08
		c-2.79,2.789-6.151,4.949-10.08,6.479c-3.93,1.53-8.295,2.295-13.095,2.295h-23.85V326.475z M126.751,326.475h27.27
		c3.06,0,5.864,0.629,8.415,1.89c2.549,1.26,4.739,2.911,6.57,4.95c1.83,2.04,3.27,4.351,4.32,6.93
		c1.049,2.58,1.575,5.19,1.575,7.83c0,2.82-0.495,5.521-1.485,8.1c-0.99,2.58-2.371,4.891-4.14,6.93
		c-1.771,2.041-3.915,3.661-6.435,4.86c-2.52,1.201-5.31,1.8-8.37,1.8h-12.96v20.61h-14.76V326.475z"/>
	<path d="M158.071,354.645c1.26-1.5,1.89-3.69,1.89-6.57c0-1.499-0.195-2.79-0.585-3.87c-0.391-1.08-0.916-1.979-1.575-2.7
		c-0.661-0.72-1.41-1.244-2.25-1.574c-0.841-0.33-1.68-0.496-2.52-0.496h-11.52v17.461h12.06
		C155.311,356.895,156.812,356.145,158.071,354.645z"/>
	<polygon points="275,15 275,85 345,85 	"/>
	<polygon points="245,115 245,0 60,0 60,265 360,265 360,115 	"/>
	<path d="M218.37,375.975c2.1-0.959,3.854-2.295,5.265-4.006c1.409-1.71,2.489-3.719,3.24-6.029c0.75-2.31,1.125-4.845,1.125-7.605
		c0-2.819-0.375-5.385-1.125-7.695c-0.751-2.309-1.845-4.305-3.285-5.984s-3.21-2.971-5.31-3.87c-2.101-0.9-4.471-1.351-7.11-1.351
		h-9.09v37.98h9.09C213.87,377.414,216.269,376.935,218.37,375.975z"/>
</g>
<g>
</g>
<g>
</g>
<g>
</g>
<g>
</g>
<g>
</g>
<g>
</g>
<g>
</g>
<g>
</g>
<g>
</g>
<g>
</g>
<g>
</g>
<g>
</g>
<g>
</g>
<g>
</g>
<g>
</g>
</svg>
